<svg xmlns="http://www.w3.org/2000/svg" viewBox="0 0 600 380" width="600" height="380">
  <defs><linearGradient id="bg" x1="0%" y1="0%" x2="100%" y2="100%"><stop offset="0%" stop-color="#0D0F18"/><stop offset="100%" stop-color="#111827"/></linearGradient></defs>
  <rect width="600" height="380" fill="url(#bg)"/>
  <pattern id="d" x="0" y="0" width="20" height="20" patternUnits="userSpaceOnUse"><circle cx="10" cy="10" r="0.7" fill="#1E2130"/></pattern>
  <rect width="600" height="380" fill="url(#d)"/>
  <rect x="0" y="0" width="600" height="38" fill="#080A12"/>
  <rect x="12" y="9" width="80" height="20" rx="4" fill="#F59E0B"/><text x="52" y="23" text-anchor="middle" fill="white" font-family="Arial" font-size="10" font-weight="bold">AFFILIATION</text>
  <text x="104" y="23" fill="#9CA3AF" font-family="Arial" font-size="11">Pack Business en Ligne &amp; Affiliation Premium — 7 Formations</text>
  <rect x="490" y="10" width="98" height="18" rx="9" fill="rgba(245,158,11,0.2)" stroke="rgba(245,158,11,0.3)" stroke-width="1"/><text x="539" y="22" text-anchor="middle" fill="#F59E0B" font-family="Arial" font-size="9" font-weight="bold">20 000 FCFA</text>
  <!-- Revenue dashboard -->
  <rect x="12" y="50" width="576" height="80" rx="6" fill="#1A1500" stroke="rgba(245,158,11,0.3)" stroke-width="1"/>
  <text x="300" y="74" text-anchor="middle" fill="white" font-family="Arial" font-size="14" font-weight="700">Générez des Revenus Passifs en Ligne</text>
  <text x="300" y="94" text-anchor="middle" fill="#9CA3AF" font-family="Arial" font-size="10">SMMA · Affiliation · YouTube · Blog · Copywriting · Marketing</text>
  <!-- Revenue metrics -->
  <rect x="24" y="108" width="100" height="52" rx="4" fill="#111"/>
  <text x="74" y="128" text-anchor="middle" fill="#9CA3AF" font-family="Arial" font-size="9">Revenu cible/mois</text>
  <text x="74" y="150" text-anchor="middle" fill="#F59E0B" font-family="Arial" font-size="20" font-weight="bold">5K€</text>
  <rect x="136" y="108" width="100" height="52" rx="4" fill="#111"/>
  <text x="186" y="128" text-anchor="middle" fill="#9CA3AF" font-family="Arial" font-size="9">via YouTube</text>
  <text x="186" y="150" text-anchor="middle" fill="#EF4444" font-family="Arial" font-size="20" font-weight="bold">2K€</text>
  <rect x="248" y="108" width="100" height="52" rx="4" fill="#111"/>
  <text x="298" y="128" text-anchor="middle" fill="#9CA3AF" font-family="Arial" font-size="9">Blog SEO</text>
  <text x="298" y="150" text-anchor="middle" fill="#10B981" font-family="Arial" font-size="20" font-weight="bold">+∞</text>
  <rect x="360" y="108" width="216" height="52" rx="4" fill="#1A1500" stroke="rgba(245,158,11,0.2)" stroke-width="1"/>
  <text x="468" y="128" text-anchor="middle" fill="#9CA3AF" font-family="Arial" font-size="9">Commission affiliation estimée</text>
  <text x="468" y="150" text-anchor="middle" fill="#F59E0B" font-family="Arial" font-size="20" font-weight="bold">40-80%</text>
  <!-- 7 formations -->
  <rect x="12" y="172" width="576" height="196" rx="6" fill="#13151F" stroke="#1E2336" stroke-width="1"/>
  <text x="24" y="192" fill="white" font-family="Arial" font-size="11" font-weight="600">7 formations incluses — Accès à vie</text>
  <rect x="24" y="200" width="270" height="38" rx="4" fill="#1A1500"/>
  <text x="36" y="214" fill="#F59E0B" font-family="Arial" font-size="9" font-weight="600">FORMATION 1</text><text x="36" y="230" fill="white" font-family="Arial" font-size="10">5 000€/mois avec une agence SMMA</text>
  <rect x="306" y="200" width="270" height="38" rx="4" fill="#1A1D2E"/>
  <text x="318" y="214" fill="#F59E0B" font-family="Arial" font-size="9" font-weight="600">FORMATION 2</text><text x="318" y="230" fill="white" font-family="Arial" font-size="10">Affiliation Premium — devenir super-affilié</text>
  <rect x="24" y="246" width="270" height="38" rx="4" fill="#1A1D2E"/>
  <text x="36" y="260" fill="#EF4444" font-family="Arial" font-size="9" font-weight="600">FORMATION 3</text><text x="36" y="276" fill="white" font-family="Arial" font-size="10">Business YouTube à 2 000€/mois</text>
  <rect x="306" y="246" width="270" height="38" rx="4" fill="#1A1D2E"/>
  <text x="318" y="260" fill="#60A5FA" font-family="Arial" font-size="9" font-weight="600">FORMATION 4</text><text x="318" y="276" fill="white" font-family="Arial" font-size="10">Lancer un blog rentable de A à Z</text>
  <rect x="24" y="292" width="270" height="38" rx="4" fill="#1A1D2E"/>
  <text x="36" y="306" fill="#10B981" font-family="Arial" font-size="9" font-weight="600">FORMATION 5</text><text x="36" y="322" fill="white" font-family="Arial" font-size="10">Créer un business qui rapporte gros</text>
  <rect x="306" y="292" width="270" height="38" rx="4" fill="#1A1D2E"/>
  <text x="318" y="306" fill="#C084FC" font-family="Arial" font-size="9" font-weight="600">FORMATION 6</text><text x="318" y="322" fill="white" font-family="Arial" font-size="10">Pages de vente qui convertissent</text>
  <rect x="24" y="338" width="560" height="24" rx="4" fill="#0A1500" stroke="rgba(245,158,11,0.3)" stroke-width="1"/>
  <text x="304" y="355" text-anchor="middle" fill="#F59E0B" font-family="Arial" font-size="9" font-weight="600">BONUS 7 — Démarrer en affiliation en partant de zéro · 8h de contenu</text>
</svg>
