<svg xmlns="http://www.w3.org/2000/svg" viewBox="0 0 600 380" width="600" height="380">
  <defs><linearGradient id="bg" x1="0%" y1="0%" x2="100%" y2="100%"><stop offset="0%" stop-color="#0D0F18"/><stop offset="100%" stop-color="#111827"/></linearGradient></defs>
  <rect width="600" height="380" fill="url(#bg)"/>
  <pattern id="d" x="0" y="0" width="20" height="20" patternUnits="userSpaceOnUse"><circle cx="10" cy="10" r="0.7" fill="#1E2130"/></pattern>
  <rect width="600" height="380" fill="url(#d)"/>
  <rect x="0" y="0" width="600" height="38" fill="#080A12"/>
  <rect x="12" y="9" width="70" height="20" rx="4" fill="#E1306C"/><text x="47" y="23" text-anchor="middle" fill="white" font-family="Arial" font-size="10" font-weight="bold">CM PRO</text>
  <text x="94" y="23" fill="#9CA3AF" font-family="Arial" font-size="11">Community Management Dashboard</text>
  <!-- Content calendar -->
  <rect x="12" y="50" width="280" height="200" rx="6" fill="#13151F" stroke="#1E2336" stroke-width="1"/>
  <text x="24" y="68" fill="white" font-family="Arial" font-size="11" font-weight="600">Calendrier éditorial — Juin</text>
  <!-- Calendar grid -->
  <text x="24" y="86" fill="#4B5563" font-family="Arial" font-size="9">LUN</text><text x="60" y="86" fill="#4B5563" font-family="Arial" font-size="9">MAR</text><text x="96" y="86" fill="#4B5563" font-family="Arial" font-size="9">MER</text><text x="132" y="86" fill="#4B5563" font-family="Arial" font-size="9">JEU</text><text x="168" y="86" fill="#4B5563" font-family="Arial" font-size="9">VEN</text><text x="204" y="86" fill="#4B5563" font-family="Arial" font-size="9">SAM</text><text x="240" y="86" fill="#4B5563" font-family="Arial" font-size="9">DIM</text>
  <!-- Week rows -->
  <rect x="24" y="92" width="30" height="22" rx="3" fill="#1E2336"/><text x="39" y="107" text-anchor="middle" fill="#6B7280" font-family="Arial" font-size="9">23</text>
  <rect x="60" y="92" width="30" height="22" rx="3" fill="#1A2744"/><text x="75" y="107" text-anchor="middle" fill="#60A5FA" font-family="Arial" font-size="8">IG 📸</text>
  <rect x="96" y="92" width="30" height="22" rx="3" fill="#1E2336"/><text x="111" y="107" text-anchor="middle" fill="#6B7280" font-family="Arial" font-size="9">25</text>
  <rect x="132" y="92" width="30" height="22" rx="3" fill="#1F1535"/><text x="147" y="107" text-anchor="middle" fill="#C084FC" font-family="Arial" font-size="8">TK 🎵</text>
  <rect x="168" y="92" width="30" height="22" rx="3" fill="#1A2744"/><text x="183" y="107" text-anchor="middle" fill="#60A5FA" font-family="Arial" font-size="8">FB 👍</text>
  <rect x="204" y="92" width="30" height="22" rx="3" fill="#1E2336"/><text x="219" y="107" text-anchor="middle" fill="#6B7280" font-family="Arial" font-size="9">28</text>
  <rect x="240" y="92" width="30" height="22" rx="3" fill="#1A3520"/><text x="255" y="107" text-anchor="middle" fill="#6EE7B7" font-family="Arial" font-size="8">WA 💬</text>
  <!-- Row 2 -->
  <rect x="24" y="120" width="30" height="22" rx="3" fill="#1A2744"/><text x="39" y="135" text-anchor="middle" fill="#60A5FA" font-family="Arial" font-size="8">FB</text>
  <rect x="60" y="120" width="30" height="22" rx="3" fill="#1E2336"/><text x="75" y="135" text-anchor="middle" fill="#6B7280" font-family="Arial" font-size="9">30</text>
  <rect x="96" y="120" width="30" height="22" rx="3" fill="#1F1535"/><text x="111" y="135" text-anchor="middle" fill="#C084FC" font-family="Arial" font-size="8">TK</text>
  <rect x="132" y="120" width="30" height="22" rx="3" fill="#1A1D2E" stroke="#2563EB" stroke-width="1"/><text x="147" y="135" text-anchor="middle" fill="#60A5FA" font-family="Arial" font-size="8">2 posts</text>
  <rect x="168" y="120" width="30" height="22" rx="3" fill="#1A1D2E"/><text x="183" y="135" text-anchor="middle" fill="#6B7280" font-family="Arial" font-size="9">4</text>
  <rect x="204" y="120" width="30" height="22" rx="3" fill="#1A2744"/><text x="219" y="135" text-anchor="middle" fill="#60A5FA" font-family="Arial" font-size="8">IG 🎥</text>
  <rect x="240" y="120" width="30" height="22" rx="3" fill="#1E2336"/><text x="255" y="135" text-anchor="middle" fill="#6B7280" font-family="Arial" font-size="9">7</text>
  <!-- Stats row -->
  <text x="24" y="162" fill="#6B7280" font-family="Arial" font-size="9">Posts publiés ce mois</text>
  <rect x="24" y="168" width="250" height="8" rx="4" fill="#1E2336"/>
  <rect x="24" y="168" width="180" height="8" rx="4" fill="#2563EB"/>
  <text x="280" y="175" text-anchor="end" fill="#9CA3AF" font-family="Arial" font-size="9">18/25</text>
  <text x="24" y="192" fill="#6B7280" font-family="Arial" font-size="9">Taux d'engagement moyen</text>
  <rect x="24" y="198" width="250" height="8" rx="4" fill="#1E2336"/>
  <rect x="24" y="198" width="190" height="8" rx="4" fill="#10B981"/>
  <text x="280" y="205" text-anchor="end" fill="#9CA3AF" font-family="Arial" font-size="9">7.6%</text>
  <text x="24" y="230" fill="#6B7280" font-family="Arial" font-size="9">Commentaires répondus</text>
  <rect x="24" y="236" width="250" height="8" rx="4" fill="#1E2336"/>
  <rect x="24" y="236" width="240" height="8" rx="4" fill="#10B981"/>
  <text x="280" y="243" text-anchor="end" fill="#10B981" font-family="Arial" font-size="9">96%</text>
  <!-- Post preview right -->
  <rect x="304" y="50" width="284" height="200" rx="6" fill="#13151F" stroke="#1E2336" stroke-width="1"/>
  <text x="316" y="68" fill="white" font-family="Arial" font-size="11" font-weight="600">Dernier post publié</text>
  <!-- Instagram post mockup -->
  <rect x="316" y="76" width="260" height="140" rx="4" fill="#1A1D2E"/>
  <!-- Photo area (gradient) -->
  <defs><linearGradient id="photo-grad" x1="0%" y1="0%" x2="100%" y2="100%"><stop offset="0%" stop-color="#1F2A40"/><stop offset="100%" stop-color="#0F1A30"/></linearGradient></defs>
  <rect x="316" y="76" width="260" height="100" rx="4" fill="url(#photo-grad)"/>
  <text x="446" y="130" text-anchor="middle" fill="rgba(255,255,255,0.15)" font-family="Arial" font-size="40" font-weight="bold">PROMO</text>
  <text x="446" y="148" text-anchor="middle" fill="white" font-family="Arial" font-size="14" font-weight="bold">-30% CE WEEKEND</text>
  <!-- Post info -->
  <text x="324" y="194" fill="#E1306C" font-family="Arial" font-size="9">♥ 284</text>
  <text x="370" y="194" fill="#9CA3AF" font-family="Arial" font-size="9">💬 47 commentaires</text>
  <text x="490" y="194" fill="#9CA3AF" font-family="Arial" font-size="9">↗ 312 partages</text>
  <text x="316" y="209" fill="#9CA3AF" font-family="Arial" font-size="9">📅 Publié il y a 3h · Instagram · Reach: 4,200</text>
  <!-- Stats row bottom -->
  <rect x="12" y="262" width="576" height="106" rx="6" fill="#13151F" stroke="#1E2336" stroke-width="1"/>
  <text x="24" y="280" fill="white" font-family="Arial" font-size="11" font-weight="600">Performance — 3 mois de gestion</text>
  <rect x="24" y="288" width="120" height="68" rx="4" fill="#1A1D2E"/>
  <text x="84" y="310" text-anchor="middle" fill="#9CA3AF" font-family="Arial" font-size="9">Nouveaux abonnés</text>
  <text x="84" y="336" text-anchor="middle" fill="white" font-family="Arial" font-size="24" font-weight="bold">+2.3K</text>
  <rect x="156" y="288" width="120" height="68" rx="4" fill="#1A1D2E"/>
  <text x="216" y="310" text-anchor="middle" fill="#9CA3AF" font-family="Arial" font-size="9">Impressions</text>
  <text x="216" y="336" text-anchor="middle" fill="white" font-family="Arial" font-size="24" font-weight="bold">84K</text>
  <rect x="288" y="288" width="120" height="68" rx="4" fill="#1A1D2E"/>
  <text x="348" y="310" text-anchor="middle" fill="#9CA3AF" font-family="Arial" font-size="9">Clics site web</text>
  <text x="348" y="336" text-anchor="middle" fill="white" font-family="Arial" font-size="24" font-weight="bold">1,840</text>
  <rect x="420" y="288" width="156" height="68" rx="4" fill="#1A2744"/>
  <text x="498" y="310" text-anchor="middle" fill="#60A5FA" font-family="Arial" font-size="9">Leads WhatsApp générés</text>
  <text x="498" y="336" text-anchor="middle" fill="#60A5FA" font-family="Arial" font-size="24" font-weight="bold">127</text>
  <text x="498" y="350" text-anchor="middle" fill="#10B981" font-family="Arial" font-size="9">via liens trackés</text>
</svg>
