<svg xmlns="http://www.w3.org/2000/svg" viewBox="0 0 600 380" width="600" height="380">
  <defs><linearGradient id="bg" x1="0%" y1="0%" x2="100%" y2="100%"><stop offset="0%" stop-color="#0D0F18"/><stop offset="100%" stop-color="#111827"/></linearGradient></defs>
  <rect width="600" height="380" fill="url(#bg)"/>
  <pattern id="d" x="0" y="0" width="20" height="20" patternUnits="userSpaceOnUse"><circle cx="10" cy="10" r="0.7" fill="#1E2130"/></pattern>
  <rect width="600" height="380" fill="url(#d)"/>
  <rect x="0" y="0" width="600" height="38" fill="#080A12"/>
  <rect x="12" y="9" width="100" height="20" rx="4" fill="#2563EB"/><text x="62" y="23" text-anchor="middle" fill="white" font-family="Arial" font-size="10" font-weight="bold">FORMATION LIVE</text>
  <text x="124" y="23" fill="#9CA3AF" font-family="Arial" font-size="11">Formation Marketing Digital — 5 jours intensifs</text>
  <!-- Program banner -->
  <rect x="12" y="50" width="576" height="80" rx="6" fill="#1A2744" stroke="#2563EB" stroke-width="1"/>
  <rect x="12" y="50" width="4" height="80" rx="2" fill="#2563EB"/>
  <text x="28" y="74" fill="white" font-family="Arial" font-size="14" font-weight="700">Marketing Digital Abidjan — Certification Incluse</text>
  <text x="28" y="92" fill="#9CA3AF" font-family="Arial" font-size="10">5 jours · Présentiel ou à distance · Groupe max 12 personnes · Tous niveaux</text>
  <rect x="450" y="62" width="126" height="54" rx="6" fill="rgba(37,99,235,0.2)" stroke="rgba(37,99,235,0.3)" stroke-width="1"/>
  <text x="513" y="84" text-anchor="middle" fill="white" font-family="Arial" font-size="18" font-weight="bold">150K</text>
  <text x="513" y="100" text-anchor="middle" fill="#9CA3AF" font-family="Arial" font-size="10">FCFA · places limitées</text>
  <!-- Programme -->
  <rect x="12" y="142" width="350" height="226" rx="6" fill="#13151F" stroke="#1E2336" stroke-width="1"/>
  <text x="24" y="162" fill="white" font-family="Arial" font-size="12" font-weight="600">Programme — 5 jours</text>
  <!-- Days -->
  <rect x="24" y="170" width="326" height="36" rx="4" fill="#1A2744"/>
  <text x="36" y="185" fill="#60A5FA" font-family="Arial" font-size="9" font-weight="600">JOUR 1</text>
  <text x="36" y="198" fill="white" font-family="Arial" font-size="10">SEO &amp; Référencement naturel — Google My Business</text>
  <rect x="24" y="212" width="326" height="36" rx="4" fill="#1A1D2E"/>
  <text x="36" y="227" fill="#60A5FA" font-family="Arial" font-size="9" font-weight="600">JOUR 2</text>
  <text x="36" y="240" fill="white" font-family="Arial" font-size="10">Facebook Ads &amp; Instagram — Ciblage Côte d'Ivoire</text>
  <rect x="24" y="254" width="326" height="36" rx="4" fill="#1A1D2E"/>
  <text x="36" y="269" fill="#60A5FA" font-family="Arial" font-size="9" font-weight="600">JOUR 3</text>
  <text x="36" y="282" fill="white" font-family="Arial" font-size="10">WhatsApp Business &amp; Email Marketing automation</text>
  <rect x="24" y="296" width="326" height="36" rx="4" fill="#1A1D2E"/>
  <text x="36" y="311" fill="#60A5FA" font-family="Arial" font-size="9" font-weight="600">JOUR 4</text>
  <text x="36" y="324" fill="white" font-family="Arial" font-size="10">Création de contenu vidéo TikTok &amp; Reels</text>
  <rect x="24" y="338" width="326" height="24" rx="4" fill="#0D1F12" stroke="rgba(16,185,129,0.3)" stroke-width="1"/>
  <text x="36" y="355" fill="#10B981" font-family="Arial" font-size="9">JOUR 5 — Mise en pratique + Certification NONALIX</text>
  <!-- Right panel -->
  <rect x="374" y="142" width="214" height="226" rx="6" fill="#13151F" stroke="#1E2336" stroke-width="1"/>
  <text x="386" y="162" fill="white" font-family="Arial" font-size="12" font-weight="600">Inclus dans la formation</text>
  <text x="386" y="184" fill="#10B981" font-family="Arial" font-size="10">✓  Supports de cours PDF complets</text>
  <text x="386" y="202" fill="#10B981" font-family="Arial" font-size="10">✓  Accès outils premium 30 jours</text>
  <text x="386" y="220" fill="#10B981" font-family="Arial" font-size="10">✓  Groupe WhatsApp suivi 6 mois</text>
  <text x="386" y="238" fill="#10B981" font-family="Arial" font-size="10">✓  Certification officielle NONALIX</text>
  <text x="386" y="256" fill="#10B981" font-family="Arial" font-size="10">✓  Déjeuner &amp; pauses inclus (présentiel)</text>
  <text x="386" y="274" fill="#10B981" font-family="Arial" font-size="10">✓  Mise en réseau alumni</text>
  <rect x="386" y="288" width="190" height="1" fill="#1E2336"/>
  <text x="386" y="308" fill="#9CA3AF" font-family="Arial" font-size="9">Prochaine session</text>
  <rect x="386" y="314" width="190" height="42" rx="6" fill="#2563EB"/>
  <text x="481" y="332" text-anchor="middle" fill="white" font-family="Arial" font-size="11" font-weight="600">Réserver ma place</text>
  <text x="481" y="347" text-anchor="middle" fill="rgba(255,255,255,0.7)" font-family="Arial" font-size="9">Session Juillet · 4 places restantes</text>
</svg>
