<svg xmlns="http://www.w3.org/2000/svg" viewBox="0 0 600 380" width="600" height="380">
  <defs><linearGradient id="bg" x1="0%" y1="0%" x2="100%" y2="100%"><stop offset="0%" stop-color="#0D0F18"/><stop offset="100%" stop-color="#111827"/></linearGradient></defs>
  <rect width="600" height="380" fill="url(#bg)"/>
  <pattern id="d" x="0" y="0" width="20" height="20" patternUnits="userSpaceOnUse"><circle cx="10" cy="10" r="0.7" fill="#1E2130"/></pattern>
  <rect width="600" height="380" fill="url(#d)"/>
  <rect x="0" y="0" width="600" height="38" fill="#080A12"/>
  <rect x="12" y="9" width="100" height="20" rx="4" fill="#10B981"/><text x="62" y="23" text-anchor="middle" fill="white" font-family="Arial" font-size="9" font-weight="bold">DÉVELOPPEMENT</text>
  <text x="124" y="23" fill="#9CA3AF" font-family="Arial" font-size="11">Pack Langues, Finance &amp; Développement Personnel</text>
  <rect x="490" y="10" width="98" height="18" rx="9" fill="rgba(16,185,129,0.2)" stroke="rgba(16,185,129,0.3)" stroke-width="1"/><text x="539" y="22" text-anchor="middle" fill="#10B981" font-family="Arial" font-size="9" font-weight="bold">15 000 FCFA</text>
  <!-- 4 modules visual -->
  <rect x="12" y="50" width="137" height="158" rx="6" fill="#13151F" stroke="#1E2336" stroke-width="1"/>
  <rect x="12" y="50" width="137" height="40" rx="6" fill="#1A2744"/>
  <text x="80" y="68" text-anchor="middle" fill="#60A5FA" font-family="Arial" font-size="24">🇬🇧</text>
  <text x="80" y="86" text-anchor="middle" fill="#60A5FA" font-family="Arial" font-size="9" font-weight="600">ANGLAIS</text>
  <text x="80" y="110" text-anchor="middle" fill="white" font-family="Arial" font-size="11" font-weight="600">Apprendre</text>
  <text x="80" y="126" text-anchor="middle" fill="white" font-family="Arial" font-size="11" font-weight="600">l'Anglais de A à Z</text>
  <text x="80" y="144" text-anchor="middle" fill="#9CA3AF" font-family="Arial" font-size="9">Cours complet</text>
  <text x="80" y="158" text-anchor="middle" fill="#9CA3AF" font-family="Arial" font-size="9">Débutant → Avancé</text>
  <text x="80" y="176" text-anchor="middle" fill="#10B981" font-family="Arial" font-size="9">✓  Grammaire · Oral</text>
  <text x="80" y="191" text-anchor="middle" fill="#10B981" font-family="Arial" font-size="9">✓  Vocabulaire business</text>
  <rect x="161" y="50" width="137" height="158" rx="6" fill="#13151F" stroke="#1E2336" stroke-width="1"/>
  <rect x="161" y="50" width="137" height="40" rx="6" fill="#1A1500"/>
  <text x="229" y="68" text-anchor="middle" fill="#F59E0B" font-family="Arial" font-size="24">📈</text>
  <text x="229" y="86" text-anchor="middle" fill="#F59E0B" font-family="Arial" font-size="9" font-weight="600">TRADING</text>
  <text x="229" y="110" text-anchor="middle" fill="white" font-family="Arial" font-size="11" font-weight="600">Trading &amp;</text>
  <text x="229" y="126" text-anchor="middle" fill="white" font-family="Arial" font-size="11" font-weight="600">Investissement</text>
  <text x="229" y="144" text-anchor="middle" fill="#9CA3AF" font-family="Arial" font-size="9">Bourse complète</text>
  <text x="229" y="158" text-anchor="middle" fill="#9CA3AF" font-family="Arial" font-size="9">Actions · Cryptos</text>
  <text x="229" y="176" text-anchor="middle" fill="#10B981" font-family="Arial" font-size="9">✓  Analyse technique</text>
  <text x="229" y="191" text-anchor="middle" fill="#10B981" font-family="Arial" font-size="9">✓  Gestion du risque</text>
  <rect x="310" y="50" width="137" height="158" rx="6" fill="#13151F" stroke="#1E2336" stroke-width="1"/>
  <rect x="310" y="50" width="137" height="40" rx="6" fill="#1F1535"/>
  <text x="378" y="68" text-anchor="middle" fill="#C084FC" font-family="Arial" font-size="24">🎤</text>
  <text x="378" y="86" text-anchor="middle" fill="#C084FC" font-family="Arial" font-size="9" font-weight="600">PRISE DE PAROLE</text>
  <text x="378" y="110" text-anchor="middle" fill="white" font-family="Arial" font-size="11" font-weight="600">Réussir vos</text>
  <text x="378" y="126" text-anchor="middle" fill="white" font-family="Arial" font-size="11" font-weight="600">Présentations</text>
  <text x="378" y="144" text-anchor="middle" fill="#9CA3AF" font-family="Arial" font-size="9">Prises de parole</text>
  <text x="378" y="158" text-anchor="middle" fill="#9CA3AF" font-family="Arial" font-size="9">En public &amp; Réunions</text>
  <text x="378" y="176" text-anchor="middle" fill="#10B981" font-family="Arial" font-size="9">✓  Confiance en soi</text>
  <text x="378" y="191" text-anchor="middle" fill="#10B981" font-family="Arial" font-size="9">✓  Gestion du stress</text>
  <rect x="459" y="50" width="139" height="158" rx="6" fill="#13151F" stroke="#1E2336" stroke-width="1"/>
  <rect x="459" y="50" width="139" height="40" rx="6" fill="#0D1F12"/>
  <text x="528" y="68" text-anchor="middle" fill="#10B981" font-family="Arial" font-size="24">🌾</text>
  <text x="528" y="86" text-anchor="middle" fill="#10B981" font-family="Arial" font-size="9" font-weight="600">AGROPASTORAL</text>
  <text x="528" y="110" text-anchor="middle" fill="white" font-family="Arial" font-size="11" font-weight="600">Élevage &amp;</text>
  <text x="528" y="126" text-anchor="middle" fill="white" font-family="Arial" font-size="11" font-weight="600">Agriculture</text>
  <text x="528" y="144" text-anchor="middle" fill="#9CA3AF" font-family="Arial" font-size="9">Business agricole</text>
  <text x="528" y="158" text-anchor="middle" fill="#9CA3AF" font-family="Arial" font-size="9">Côte d'Ivoire</text>
  <text x="528" y="176" text-anchor="middle" fill="#10B981" font-family="Arial" font-size="9">✓  Élevage rentable</text>
  <text x="528" y="191" text-anchor="middle" fill="#10B981" font-family="Arial" font-size="9">✓  Cultures lucratives</text>
  <!-- Bottom banner -->
  <rect x="12" y="220" width="576" height="148" rx="6" fill="#13151F" stroke="#1E2336" stroke-width="1"/>
  <text x="24" y="240" fill="white" font-family="Arial" font-size="11" font-weight="600">4 formations pour votre enrichissement personnel &amp; professionnel</text>
  <!-- Skill chart -->
  <text x="24" y="268" fill="#9CA3AF" font-family="Arial" font-size="10">Maîtrise après formation</text>
  <text x="24" y="286" fill="#9CA3AF" font-family="Arial" font-size="9">Anglais business</text>
  <rect x="24" y="290" width="540" height="7" rx="3" fill="#1E2336"/>
  <rect x="24" y="290" width="432" height="7" rx="3" fill="#60A5FA"/>
  <text x="572" y="296" text-anchor="end" fill="#60A5FA" font-family="Arial" font-size="9">80%</text>
  <text x="24" y="308" fill="#9CA3AF" font-family="Arial" font-size="9">Trading / Analyse technique</text>
  <rect x="24" y="312" width="540" height="7" rx="3" fill="#1E2336"/>
  <rect x="24" y="312" width="378" height="7" rx="3" fill="#F59E0B"/>
  <text x="572" y="318" text-anchor="end" fill="#F59E0B" font-family="Arial" font-size="9">70%</text>
  <text x="24" y="330" fill="#9CA3AF" font-family="Arial" font-size="9">Prise de parole / Leadership</text>
  <rect x="24" y="334" width="540" height="7" rx="3" fill="#1E2336"/>
  <rect x="24" y="334" width="486" height="7" rx="3" fill="#C084FC"/>
  <text x="572" y="340" text-anchor="end" fill="#C084FC" font-family="Arial" font-size="9">90%</text>
  <text x="24" y="352" fill="#9CA3AF" font-family="Arial" font-size="9">Business agropastoral</text>
  <rect x="24" y="356" width="540" height="7" rx="3" fill="#1E2336"/>
  <rect x="24" y="356" width="351" height="7" rx="3" fill="#10B981"/>
  <text x="572" y="362" text-anchor="end" fill="#10B981" font-family="Arial" font-size="9">65%</text>
</svg>
