<svg xmlns="http://www.w3.org/2000/svg" viewBox="0 0 600 380" width="600" height="380">
  <defs><linearGradient id="bg" x1="0%" y1="0%" x2="100%" y2="100%"><stop offset="0%" stop-color="#0D0F18"/><stop offset="100%" stop-color="#111827"/></linearGradient><linearGradient id="book-g" x1="0%" y1="0%" x2="0%" y2="100%"><stop offset="0%" stop-color="#2563EB"/><stop offset="100%" stop-color="#1D4ED8"/></linearGradient></defs>
  <rect width="600" height="380" fill="url(#bg)"/>
  <pattern id="d" x="0" y="0" width="20" height="20" patternUnits="userSpaceOnUse"><circle cx="10" cy="10" r="0.7" fill="#1E2130"/></pattern>
  <rect width="600" height="380" fill="url(#d)"/>
  <rect x="0" y="0" width="600" height="38" fill="#080A12"/>
  <rect x="12" y="9" width="70" height="20" rx="4" fill="#7C3AED"/><text x="47" y="23" text-anchor="middle" fill="white" font-family="Arial" font-size="9" font-weight="bold">EBOOKS</text>
  <text x="94" y="23" fill="#9CA3AF" font-family="Arial" font-size="11">Super Bibliothèque — 2000+ Ebooks &amp; 100 Livres Audio</text>
  <rect x="490" y="10" width="98" height="18" rx="9" fill="rgba(124,58,237,0.2)" stroke="rgba(124,58,237,0.3)" stroke-width="1"/><text x="539" y="22" text-anchor="middle" fill="#C084FC" font-family="Arial" font-size="9" font-weight="bold">10 000 FCFA</text>
  <!-- Book shelf visual -->
  <rect x="12" y="50" width="576" height="140" rx="6" fill="#13151F" stroke="#1E2336" stroke-width="1"/>
  <text x="300" y="72" text-anchor="middle" fill="white" font-family="Arial" font-size="13" font-weight="700">2 000+ Ebooks · 100 Livres Audio · Accès à vie</text>
  <!-- Books on shelf -->
  <rect x="24" y="84" width="18" height="90" rx="2" fill="#2563EB"/>
  <rect x="44" y="90" width="14" height="84" rx="2" fill="#10B981"/>
  <rect x="60" y="80" width="20" height="94" rx="2" fill="#F59E0B"/>
  <rect x="82" y="88" width="16" height="86" rx="2" fill="#EF4444"/>
  <rect x="100" y="76" width="22" height="98" rx="2" fill="#7C3AED"/>
  <rect x="124" y="85" width="15" height="89" rx="2" fill="#EC4899"/>
  <rect x="141" y="79" width="19" height="95" rx="2" fill="#2563EB"/>
  <rect x="162" y="88" width="14" height="86" rx="2" fill="#10B981"/>
  <rect x="178" y="83" width="22" height="91" rx="2" fill="#F59E0B"/>
  <rect x="202" y="76" width="16" height="98" rx="2" fill="#EF4444"/>
  <rect x="220" y="90" width="18" height="84" rx="2" fill="#7C3AED"/>
  <rect x="240" y="82" width="14" height="92" rx="2" fill="#EC4899"/>
  <rect x="256" y="78" width="20" height="96" rx="2" fill="#2563EB"/>
  <rect x="278" y="86" width="16" height="88" rx="2" fill="#10B981"/>
  <rect x="296" y="80" width="22" height="94" rx="2" fill="#F59E0B"/>
  <rect x="320" y="88" width="14" height="86" rx="2" fill="#C084FC"/>
  <rect x="336" y="75" width="18" height="99" rx="2" fill="#EF4444"/>
  <rect x="356" y="84" width="16" height="90" rx="2" fill="#2563EB"/>
  <rect x="374" y="79" width="22" height="95" rx="2" fill="#10B981"/>
  <rect x="398" y="87" width="14" height="87" rx="2" fill="#F59E0B"/>
  <rect x="414" y="76" width="20" height="98" rx="2" fill="#7C3AED"/>
  <rect x="436" y="84" width="16" height="90" rx="2" fill="#EC4899"/>
  <rect x="454" y="80" width="18" height="94" rx="2" fill="#2563EB"/>
  <rect x="474" y="88" width="14" height="86" rx="2" fill="#10B981"/>
  <rect x="490" y="76" width="22" height="98" rx="2" fill="#EF4444"/>
  <rect x="514" y="82" width="16" height="92" rx="2" fill="#7C3AED"/>
  <rect x="532" y="86" width="20" height="88" rx="2" fill="#F59E0B"/>
  <rect x="554" y="79" width="18" height="95" rx="2" fill="#C084FC"/>
  <!-- Shelf line -->
  <rect x="12" y="178" width="576" height="4" rx="2" fill="#1E2336"/>
  <text x="300" y="183" text-anchor="middle" fill="#1E2336" font-family="Arial" font-size="8">●●●●●●●●●●●●●●●●●●●●●●●●●●</text>
  <!-- Content categories -->
  <rect x="12" y="200" width="576" height="168" rx="6" fill="#13151F" stroke="#1E2336" stroke-width="1"/>
  <text x="24" y="220" fill="white" font-family="Arial" font-size="11" font-weight="600">Contenu inclus — Tout en un téléchargement</text>
  <!-- Category cards -->
  <rect x="24" y="228" width="126" height="50" rx="4" fill="#1F1535"/>
  <text x="87" y="248" text-anchor="middle" fill="#C084FC" font-family="Arial" font-size="18">🎧</text>
  <text x="87" y="268" text-anchor="middle" fill="white" font-family="Arial" font-size="9" font-weight="600">100 Livres Audio</text>
  <rect x="162" y="228" width="126" height="50" rx="4" fill="#1A1500"/>
  <text x="225" y="248" text-anchor="middle" fill="#F59E0B" font-family="Arial" font-size="18">💼</text>
  <text x="225" y="268" text-anchor="middle" fill="white" font-family="Arial" font-size="9" font-weight="600">Business &amp; Mindset</text>
  <rect x="300" y="228" width="126" height="50" rx="4" fill="#0D1F12"/>
  <text x="363" y="248" text-anchor="middle" fill="#10B981" font-family="Arial" font-size="18">💰</text>
  <text x="363" y="268" text-anchor="middle" fill="white" font-family="Arial" font-size="9" font-weight="600">Finance &amp; Investissement</text>
  <rect x="438" y="228" width="138" height="50" rx="4" fill="#1A2744"/>
  <text x="507" y="248" text-anchor="middle" fill="#60A5FA" font-family="Arial" font-size="18">🚀</text>
  <text x="507" y="268" text-anchor="middle" fill="white" font-family="Arial" font-size="9" font-weight="600">Motivation &amp; Leadership</text>
  <!-- Bonus section -->
  <rect x="24" y="286" width="540" height="38" rx="4" fill="#0A1A12" stroke="rgba(16,185,129,0.3)" stroke-width="1"/>
  <text x="36" y="302" fill="#10B981" font-family="Arial" font-size="9" font-weight="600">BONUS INCLUS</text>
  <text x="36" y="316" fill="white" font-family="Arial" font-size="10">"Écrire un livre en 60 jours et le placer 1er sur Amazon" — Formation complète offerte</text>
  <!-- Stats -->
  <rect x="24" y="332" width="125" height="28" rx="4" fill="#1A1D2E"/><text x="86" y="350" text-anchor="middle" fill="white" font-family="Arial" font-size="10" font-weight="600">2 000+ Ebooks</text>
  <rect x="162" y="332" width="125" height="28" rx="4" fill="#1A1D2E"/><text x="224" y="350" text-anchor="middle" fill="white" font-family="Arial" font-size="10" font-weight="600">100 Livres Audio</text>
  <rect x="300" y="332" width="125" height="28" rx="4" fill="#1A1D2E"/><text x="362" y="350" text-anchor="middle" fill="#10B981" font-family="Arial" font-size="10" font-weight="600">Accès à vie</text>
  <rect x="438" y="332" width="138" height="28" rx="4" fill="#7C3AED"/><text x="507" y="350" text-anchor="middle" fill="white" font-family="Arial" font-size="10" font-weight="600">Téléchargement immédiat</text>
</svg>
