<svg xmlns="http://www.w3.org/2000/svg" viewBox="0 0 600 380" width="600" height="380">
  <defs><linearGradient id="bg" x1="0%" y1="0%" x2="100%" y2="100%"><stop offset="0%" stop-color="#0D0F18"/><stop offset="100%" stop-color="#111827"/></linearGradient></defs>
  <rect width="600" height="380" fill="url(#bg)"/>
  <pattern id="d" x="0" y="0" width="20" height="20" patternUnits="userSpaceOnUse"><circle cx="10" cy="10" r="0.7" fill="#1E2130"/></pattern>
  <rect width="600" height="380" fill="url(#d)"/>
  <rect x="0" y="0" width="600" height="38" fill="#080A12"/>
  <rect x="12" y="9" width="66" height="20" rx="4" fill="#FF0050"/><text x="45" y="23" text-anchor="middle" fill="white" font-family="Arial" font-size="9" font-weight="bold">TIKTOK</text>
  <text x="90" y="23" fill="#9CA3AF" font-family="Arial" font-size="11">Pack Montage Vidéo Pro &amp; TikTok — 5 Formations</text>
  <rect x="490" y="10" width="98" height="18" rx="9" fill="rgba(255,0,80,0.15)" stroke="rgba(255,0,80,0.3)" stroke-width="1"/><text x="539" y="22" text-anchor="middle" fill="#FF6694" font-family="Arial" font-size="9" font-weight="bold">15 000 FCFA</text>
  <!-- Video editor mockup -->
  <rect x="12" y="50" width="350" height="176" rx="6" fill="#13151F" stroke="#1E2336" stroke-width="1"/>
  <rect x="12" y="50" width="350" height="22" rx="6" fill="#1A1D2E"/>
  <text x="24" y="65" fill="#9CA3AF" font-family="Arial" font-size="9">Premiere Pro 2024 — Montage Reel.mp4</text>
  <!-- Preview area -->
  <rect x="20" y="78" width="200" height="112" rx="4" fill="#000"/>
  <text x="120" y="130" text-anchor="middle" fill="rgba(255,255,255,0.1)" font-family="Arial" font-size="30" font-weight="bold">▶</text>
  <rect x="20" y="182" width="200" height="8" rx="2" fill="#1E2336"/>
  <rect x="20" y="182" width="130" height="8" rx="2" fill="#FF0050"/>
  <!-- Timeline -->
  <rect x="228" y="78" width="126" height="8" rx="2" fill="#2563EB" opacity="0.8"/>
  <rect x="228" y="94" width="90" height="8" rx="2" fill="#FF0050" opacity="0.8"/>
  <rect x="228" y="110" width="110" height="8" rx="2" fill="#10B981" opacity="0.8"/>
  <rect x="228" y="126" width="70" height="8" rx="2" fill="#F59E0B" opacity="0.8"/>
  <text x="228" y="156" fill="#9CA3AF" font-family="Arial" font-size="8">VIDEO · AUDIO · TEXT · FX</text>
  <!-- Tools palette -->
  <text x="228" y="174" fill="#6B7280" font-family="Arial" font-size="8">✂️ Couper  🎨 Color  🎵 Son  📝 Texte</text>
  <!-- TikTok phone -->
  <rect x="374" y="50" width="98" height="176" rx="16" fill="#1A1D2E" stroke="#FF0050" stroke-width="1.5"/>
  <rect x="380" y="56" width="86" height="164" rx="12" fill="#000"/>
  <!-- Notch -->
  <rect x="406" y="56" width="34" height="8" rx="4" fill="#1A1D2E"/>
  <!-- Video content -->
  <rect x="380" y="68" width="86" height="140" rx="4" fill="#111"/>
  <text x="423" y="130" text-anchor="middle" fill="rgba(255,255,255,0.08)" font-family="Arial" font-size="24" font-weight="bold">VIRAL</text>
  <text x="423" y="148" text-anchor="middle" fill="rgba(255,255,255,0.08)" font-family="Arial" font-size="14">60s</text>
  <!-- TikTok buttons -->
  <text x="460" y="90" fill="#FF0050" font-family="Arial" font-size="14">❤️</text>
  <text x="462" y="102" fill="white" font-family="Arial" font-size="8">48K</text>
  <text x="460" y="118" fill="white" font-family="Arial" font-size="14">💬</text>
  <text x="462" y="130" fill="white" font-family="Arial" font-size="8">3.2K</text>
  <text x="460" y="146" fill="white" font-family="Arial" font-size="14">↗️</text>
  <text x="462" y="158" fill="white" font-family="Arial" font-size="8">Share</text>
  <!-- Right panel - stats -->
  <rect x="484" y="50" width="104" height="176" rx="6" fill="#13151F" stroke="#1E2336" stroke-width="1"/>
  <text x="536" y="70" text-anchor="middle" fill="white" font-family="Arial" font-size="10" font-weight="600">Stats TikTok</text>
  <text x="510" y="92" fill="#9CA3AF" font-family="Arial" font-size="8">Vues</text>
  <text x="582" y="92" text-anchor="end" fill="white" font-family="Arial" font-size="10" font-weight="bold">2.1M</text>
  <text x="510" y="112" fill="#9CA3AF" font-family="Arial" font-size="8">Followers</text>
  <text x="582" y="112" text-anchor="end" fill="white" font-family="Arial" font-size="10" font-weight="bold">124K</text>
  <text x="510" y="132" fill="#9CA3AF" font-family="Arial" font-size="8">Taux eng.</text>
  <text x="582" y="132" text-anchor="end" fill="#FF0050" font-family="Arial" font-size="10" font-weight="bold">9.4%</text>
  <text x="510" y="152" fill="#9CA3AF" font-family="Arial" font-size="8">Viral</text>
  <text x="582" y="152" text-anchor="end" fill="#10B981" font-family="Arial" font-size="10" font-weight="bold">×30</text>
  <rect x="496" y="162" width="80" height="22" rx="11" fill="#FF0050"/>
  <text x="536" y="177" text-anchor="middle" fill="white" font-family="Arial" font-size="9" font-weight="600">VIRAL</text>
  <!-- Formations -->
  <rect x="12" y="238" width="576" height="130" rx="6" fill="#13151F" stroke="#1E2336" stroke-width="1"/>
  <text x="24" y="258" fill="white" font-family="Arial" font-size="11" font-weight="600">5 formations incluses — Devenez créateur vidéo pro</text>
  <rect x="24" y="266" width="168" height="40" rx="4" fill="#1A1D2E"/>
  <text x="36" y="280" fill="#9CA3AF" font-family="Arial" font-size="8" font-weight="600">FORMATION 1</text>
  <text x="36" y="298" fill="white" font-family="Arial" font-size="9">Premiere Pro 2024 Réseaux</text>
  <rect x="204" y="266" width="168" height="40" rx="4" fill="#1A1D2E"/>
  <text x="216" y="280" fill="#9CA3AF" font-family="Arial" font-size="8" font-weight="600">FORMATION 2</text>
  <text x="216" y="298" fill="white" font-family="Arial" font-size="9">DaVinci Resolve YouTube</text>
  <rect x="384" y="266" width="192" height="40" rx="4" fill="#1A1D2E"/>
  <text x="396" y="280" fill="#FF0050" font-family="Arial" font-size="8" font-weight="600">FORMATION 3 — VIRAL</text>
  <text x="396" y="298" fill="white" font-family="Arial" font-size="9">30j TikTok, Reels &amp; Shorts</text>
  <rect x="24" y="316" width="168" height="40" rx="4" fill="#1A1500"/>
  <text x="36" y="330" fill="#FF0050" font-family="Arial" font-size="8" font-weight="600">FORMATION 4</text>
  <text x="36" y="346" fill="white" font-family="Arial" font-size="9">Certification TikTok Marketing</text>
  <rect x="204" y="316" width="372" height="40" rx="4" fill="#1A1D2E"/>
  <text x="216" y="330" fill="#C084FC" font-family="Arial" font-size="8" font-weight="600">FORMATION 5 — BONUS</text>
  <text x="216" y="346" fill="white" font-family="Arial" font-size="9">Montage vidéo traditionnel complet · +15h</text>
</svg>
